<svg xmlns="http://www.w3.org/2000/svg" xmlns:xlink="http://www.w3.org/1999/xlink" width="783" height="783" version="1.1" viewBox="0 0 783 783"><title>paris_p2p</title><desc>Created with Sketch.</desc><g id="Page-1" fill="none" fill-rule="evenodd" stroke="none" stroke-width="1"><g id="logo-4-turquoise" transform="translate(64.000000, 25.000000)"><path id="Shape-Copy" fill="#383B62" fill-rule="nonzero" stroke="#6ED3F0" stroke-linejoin="round" stroke-width="12" d="M661,188.89029 L661,545.185832 C661,550.969922 657.878237,556.303688 652.835127,559.13613 L335.29599,737.480674 C330.429532,740.2139 324.490467,740.213592 319.624292,737.479862 L2.16342806,559.136013 C-2.87887137,556.303339 -6,550.970024 -6,545.186528 L-6,188.813472 C-6,183.029976 -2.87887137,177.696661 2.16342806,174.863987 L319.623262,-3.47928367 C324.490329,-6.21351498 330.430605,-6.21328968 335.297464,-3.4786892 L652.83763,174.941399 C657.879336,177.774243 661,183.107229 661,188.89029 Z"/><text id="Paris-P2P" fill="#FFF" font-family="CourierNewPS-BoldMT, Courier New" font-size="82" font-weight="bold"><tspan x="107.264" y="553">Paris P</tspan> <tspan x="451.72" y="553" font-size="78">2</tspan> <tspan x="498.528" y="553">P</tspan></text><g id="01--eiffel-tower" transform="translate(238.000000, 69.000000)"><path id="fill-55" fill="#43466F" d="M81,75 L81,74.2114286 C81,65.8788571 84.4132143,57.888 90.5,52 C96.58,57.888 100,65.8788571 100,74.2114286 L100,75 L81,75 Z"/><polygon id="fill-49" stroke="#4D4F7D" stroke-linecap="round" stroke-linejoin="round" stroke-width="3" points="68 110 77 129 104 129 113 110"/><path id="Fill-9" fill="#43466F" d="M72.5939286,294.5 C77.5391071,279.752857 81.4823214,264.722857 84.3783214,249.5 L96.6152143,249.5 C99.5112143,264.722857 103.454429,279.752857 108.399607,294.5 L72.5939286,294.5 Z M108.244464,181.170714 L99.5435357,74 L81.45,74 L72.7555357,181.170714 C66.7243571,255.491429 41.6817143,327.035 0,389 L36.42625,389 C38.734,361.286429 62.03775,339.5 90.5,339.5 C118.955786,339.5 142.259536,361.286429 144.567286,389 L181,389 C139.311821,327.035 114.269179,255.491429 108.244464,181.170714 L108.244464,181.170714 Z"/><path id="Stroke-31" stroke="#6568A8" stroke-linecap="round" stroke-linejoin="round" stroke-width="3" d="M72.5939286,294.5 C77.5391071,280.080571 81.4823214,265.384571 84.3783214,250.5 L96.6152143,250.5 C99.5112143,265.384571 103.454429,280.080571 108.399607,294.5 L72.5939286,294.5 Z M108.244464,181.170714 L99.5435357,74 L81.45,74 L72.7555357,181.170714 C66.7243571,255.491429 41.6817143,327.035 0,389 L36.42625,389 C38.734,361.286429 62.03775,339.5 90.5,339.5 C118.955786,339.5 142.259536,361.286429 144.567286,389 L181,389 C139.311821,327.035 114.269179,255.491429 108.244464,181.170714 Z"/><path id="Stroke-35" stroke="#6568A8" stroke-linecap="round" stroke-linejoin="round" stroke-width="3" d="M154,344 C149.474747,335.135 145.253333,326.135 141.348687,317 L38.6513131,317 C34.7466667,326.135 30.5252525,335.135 26,344 L68.2852525,344 C74.9373737,341.107143 82.2747475,339.5 90,339.5 C97.7252525,339.5 105.069091,341.107143 111.714747,344 L154,344 Z"/><polygon id="fill-49" fill="#43466F" points="68 110 77 129 104 129 113 110"/><path id="Stroke-37" stroke="#6568A8" stroke-linecap="round" stroke-linejoin="round" stroke-width="3" d="M54,227 L126,227"/><path id="fill-41" fill="#43466F" stroke="#B3B7ED" stroke-linecap="round" stroke-linejoin="round" stroke-width="3" d="M114.645833,250 L66.3541667,250 C62.8466667,250 60,247.056 60,243.428571 L60,227 L121,227 L121,243.428571 C121,247.056 118.153333,250 114.645833,250 Z"/><path id="Stroke-41" stroke="#6568A8" stroke-linecap="round" stroke-linejoin="round" stroke-width="3" d="M114.645833,250 L66.3541667,250 C62.8466667,250 60,247.056 60,243.428571 L60,227 L121,227 L121,243.428571 C121,247.056 118.153333,250 114.645833,250 Z"/><path id="fill-45" fill="#43466F" d="M113,111 L68,111 L68,98.7857143 C68,95.04 70.88,92 74.4285714,92 L106.571429,92 C110.12,92 113,95.04 113,98.7857143 L113,111 Z"/><path id="Stroke-45" stroke="#6568A8" stroke-linecap="round" stroke-linejoin="round" stroke-width="3" d="M113,110 L68,110 L68,97.7857143 C68,94.04 70.88,91 74.4285714,91 L106.571429,91 C110.12,91 113,94.04 113,97.7857143 L113,110 Z"/><polygon id="Stroke-49" stroke="#6568A8" stroke-linecap="round" stroke-linejoin="round" stroke-width="3" points="68 110 77 129 104 129 113 110"/><path id="Stroke-51" stroke="#6568A8" stroke-linecap="round" stroke-linejoin="round" stroke-width="3" d="M73,74 L109,74"/><path id="Stroke-55" stroke="#6568A8" stroke-linecap="round" stroke-linejoin="round" stroke-width="3" d="M81,75 L81,74.2114286 C81,65.8788571 84.4132143,57.888 90.5,52 C96.58,57.888 100,65.8788571 100,74.2114286 L100,75 L81,75 Z"/><path id="Stroke-57" stroke="#6568A8" stroke-linecap="round" stroke-linejoin="round" stroke-width="3" d="M90,52 L90,29"/><path id="Stroke-59" stroke="#6568A8" stroke-linecap="round" stroke-linejoin="round" stroke-width="3" d="M32,295 L32,286"/><path id="Stroke-61" stroke="#6568A8" stroke-linecap="round" stroke-linejoin="round" stroke-width="3" d="M149,295 L149,286"/><path id="fill-65" fill="#43466F" stroke="#B3B7ED" stroke-linecap="round" stroke-linejoin="round" stroke-width="3" d="M149,295 L32,295 L32,311.428571 C32,315.056 34.88,318 38.4285714,318 L142.571429,318 C146.12,318 149,315.056 149,311.428571 L149,295 Z"/><path id="Stroke-65" stroke="#6568A8" stroke-linecap="round" stroke-linejoin="round" stroke-width="3" d="M149,295 L32,295 L32,311.428571 C32,315.056 34.88,318 38.4285714,318 L142.571429,318 C146.12,318 149,315.056 149,311.428571 L149,295 Z"/><path id="Stroke-67" stroke="#6568A8" stroke-linecap="round" stroke-linejoin="round" stroke-width="3" d="M49,317 L49,308"/><path id="Stroke-69" stroke="#6568A8" stroke-linecap="round" stroke-linejoin="round" stroke-width="3" d="M72,317 L72,308"/><path id="Stroke-71" stroke="#6568A8" stroke-linecap="round" stroke-linejoin="round" stroke-width="3" d="M109,317 L109,308"/><path id="Stroke-73" stroke="#6568A8" stroke-linecap="round" stroke-linejoin="round" stroke-width="3" d="M130,317 L130,308"/><polyline id="Stroke-75" stroke="#6568A8" stroke-linecap="round" stroke-linejoin="round" stroke-width="3" points="77.558 128 106.907 154.878 74.023 172.801 111 199.686 68 222"/><path id="Stroke-77" stroke="#6568A8" stroke-linecap="round" stroke-linejoin="round" stroke-width="3" d="M90,317 L90,340"/><path id="Stroke-79" stroke="#6568A8" stroke-linecap="round" stroke-linejoin="round" stroke-width="3" d="M58,317 L58,344"/><path id="Stroke-81" stroke="#6568A8" stroke-linecap="round" stroke-linejoin="round" stroke-width="3" d="M122,317 L122,344"/><polyline id="Stroke-83" stroke="#6568A8" stroke-linecap="round" stroke-linejoin="round" stroke-width="3" points="120.618 255 102 272.344 130 287"/><polyline id="Stroke-85" stroke="#6568A8" stroke-linecap="round" stroke-linejoin="round" stroke-width="3" points="60.456 255 79 272.327 51 287"/><polyline id="Stroke-87" stroke="#6568A8" stroke-linecap="round" stroke-linejoin="round" stroke-width="3" points="37.196 390 14 368.734 59 351"/><polyline id="Stroke-89" stroke="#6568A8" stroke-linecap="round" stroke-linejoin="round" stroke-width="3" points="145.323 390 168 368.734 124 351"/><path id="Stroke-93" stroke="#6568A8" stroke-linecap="round" stroke-linejoin="round" stroke-width="3" d="M106,29 L90,29 L90,6.44444444 C90,2.88711111 92.8672,0 96.4,0 L106,0 L106,29 Z"/><polygon id="Stroke-97" stroke="#6568A8" stroke-linecap="round" stroke-linejoin="round" stroke-width="3" points="106 29 122 29 122 0 106 0"/><path id="Stroke-99" stroke="#6568A8" stroke-linecap="round" stroke-linejoin="round" stroke-width="3" d="M138,22.5555556 C138,26.1193333 135.1328,29 131.6,29 L122,29 L122,0 L131.6,0 C135.1328,0 138,2.88711111 138,6.44444444 L138,22.5555556 Z"/></g><g id="circles-tower" fill="#6ED3F0" transform="translate(231.000000, 63.000000)"><circle id="Oval" cx="110" cy="98" r="6"/><circle id="Oval" cx="109.5" cy="134.5" r="4.5"/><circle id="Oval" cx="118" cy="116" r="4"/><circle id="Oval" cx="112" cy="160" r="5"/><circle id="Oval" cx="120.5" cy="205.5" r="6.5"/><circle id="Oval" cx="106.5" cy="79.5" r="3.5"/><circle id="Oval" cx="188.5" cy="394.5" r="5.5"/><circle id="Oval" cx="152" cy="322" r="7"/><circle id="Oval" cx="136" cy="291" r="5"/><circle id="Oval" cx="113.5" cy="300.5" r="4.5"/><circle id="Oval" cx="111" cy="278" r="7"/><circle id="Oval" cx="126.5" cy="257.5" r="5.5"/><circle id="Oval" cx="155" cy="301" r="5"/><circle id="Oval" cx="132.5" cy="353.5" r="9.5"/><circle id="Oval" cx="153" cy="393" r="7"/><circle id="Oval" cx="161" cy="349" r="5"/><circle id="Oval" cx="175.5" cy="374.5" r="5.5"/><circle id="Oval" cx="129" cy="324" r="5"/><circle id="Oval" cx="123.5" cy="233.5" r="5.5"/><circle id="Oval" cx="87" cy="97" r="4"/><circle id="Oval" cx="84.5" cy="134.5" r="6.5"/><circle id="Oval" cx="75.5" cy="116.5" r="4.5"/><circle id="Oval" cx="81.5" cy="179.5" r="4.5"/><circle id="Oval" cx="88" cy="80" r="5"/><circle id="Oval" cx="9.5" cy="392.5" r="9.5"/><circle id="Oval" cx="45.5" cy="323.5" r="5.5"/><circle id="Oval" cx="58.5" cy="291.5" r="4.5"/><circle id="Oval" cx="86" cy="278" r="5"/><circle id="Oval" cx="68.5" cy="257.5" r="6.5"/><circle id="Oval" cx="92" cy="256" r="4"/><circle id="Oval" cx="104" cy="257" r="3"/><circle id="Oval" cx="80.5" cy="300.5" r="4.5"/><circle id="Oval" cx="38.5" cy="301.5" r="6.5"/><circle id="Oval" cx="68" cy="353" r="6"/><circle id="Oval" cx="43" cy="395" r="5"/><circle id="Oval" cx="35.5" cy="348.5" r="7.5"/><circle id="Oval" cx="22" cy="374" r="5"/><circle id="Oval" cx="64.5" cy="324.5" r="4.5"/><circle id="Oval" cx="73.5" cy="231.5" r="8.5"/><circle id="Oval" cx="97" cy="345" r="5"/><circle id="Oval" cx="97.5" cy="322.5" r="6.5"/><circle id="Oval" cx="97" cy="59" r="5"/><circle id="Oval" cx="113" cy="6" r="3"/><circle id="Oval" cx="145" cy="6" r="6"/><circle id="Oval" cx="129" cy="35" r="5"/><circle id="Oval" cx="97.5" cy="34.5" r="6.5"/></g><g id="circles-bg" fill="#6ED3F0" opacity=".9" transform="translate(24.000000, 24.000000)"><circle id="Oval" cx="160" cy="116" r="4"/><circle id="Oval" cx="116" cy="166" r="6"/><circle id="Oval" cx="39.5" cy="265.5" r="6.5"/><circle id="Oval" cx="231.5" cy="462.5" r="4.5"/><circle id="Oval" cx="166.5" cy="447.5" r="4.5"/><circle id="Oval" cx="79" cy="146" r="5"/><circle id="Oval" cx="23.5" cy="190.5" r="9.5"/><circle id="Oval" cx="276" cy="574" r="5"/><circle id="Oval" cx="81.5" cy="447.5" r="7.5"/><circle id="Oval" cx="99.5" cy="413.5" r="5.5"/><circle id="Oval" cx="108" cy="319" r="11"/><circle id="Oval" cx="171" cy="382" r="9"/><circle id="Oval" cx="89.5" cy="196.5" r="4.5"/><circle id="Oval" cx="196.5" cy="549.5" r="6.5"/><circle id="Oval" cx="215.5" cy="617.5" r="6.5"/><circle id="Oval" cx="286.5" cy="624.5" r="5.5"/><circle id="Oval" cx="131.5" cy="569.5" r="9.5"/><circle id="Oval" cx="43.5" cy="358.5" r="6.5"/><circle id="Oval" cx="207" cy="330" r="6"/><circle id="Oval" cx="184" cy="261" r="5"/><circle id="Oval" cx="27" cy="477" r="5"/><circle id="Oval" cx="16.5" cy="314.5" r="5.5"/><circle id="Oval" cx="55" cy="526" r="5"/><circle id="Oval" cx="5.5" cy="413.5" r="5.5"/><circle id="Oval" cx="157.5" cy="328.5" r="4.5"/><circle id="Oval" cx="107.5" cy="263.5" r="7.5"/><circle id="Oval" cx="157" cy="219" r="7"/><circle id="Oval" cx="232.5" cy="245.5" r="5.5"/><circle id="Oval" cx="237.5" cy="160.5" r="6.5"/><circle id="Oval" cx="212.5" cy="104.5" r="7.5"/><circle id="Oval" cx="250.5" cy="57.5" r="5.5"/><circle id="Oval" cx="297.5" cy="5.5" r="5.5"/><circle id="Oval" cx="179" cy="161" r="11"/></g><g id="circles-bg" fill="#6ED3F0" opacity=".9" transform="translate(336.000000, 95.000000)"><circle id="Oval" cx="73" cy="4" r="4"/><circle id="Oval" cx="142.5" cy="161.5" r="6.5"/><circle id="Oval" cx="158.5" cy="47.5" r="4.5"/><circle id="Oval" cx="147.5" cy="495.5" r="4.5"/><circle id="Oval" cx="225.5" cy="465.5" r="4.5"/><circle id="Oval" cx="228" cy="71" r="5"/><circle id="Oval" cx="84.5" cy="109.5" r="7.5"/><circle id="Oval" cx="168.5" cy="192.5" r="5.5"/><circle id="Oval" cx="194.5" cy="266.5" r="7.5"/><circle id="Oval" cx="146.5" cy="370.5" r="5.5"/><circle id="Oval" cx="242" cy="241" r="9"/><circle id="Oval" cx="216" cy="144" r="5"/><circle id="Oval" cx="225.5" cy="392.5" r="7.5"/><circle id="Oval" cx="131" cy="86" r="5"/><circle id="Oval" cx="275" cy="123" r="6"/><circle id="Oval" cx="292" cy="168" r="6"/><circle id="Oval" cx="267" cy="205" r="5"/><circle id="Oval" cx="101" cy="505" r="5"/><circle id="Oval" cx="90" cy="225" r="6"/><circle id="Oval" cx="63.5" cy="166.5" r="5.5"/><circle id="Oval" cx="201" cy="325" r="5"/><circle id="Oval" cx="6" cy="349" r="6"/><circle id="Oval" cx="35.5" cy="397.5" r="4.5"/><circle id="Oval" cx="144.5" cy="248.5" r="7.5"/><circle id="Oval" cx="117" cy="297" r="5"/><circle id="Oval" cx="22" cy="487" r="9"/><circle id="Oval" cx="73.5" cy="557.5" r="6.5"/><circle id="Oval" cx="187" cy="88" r="9"/><circle id="Oval" cx="57" cy="59" r="7"/><circle id="Oval" cx="253.5" cy="341.5" r="7.5"/><circle id="Oval" cx="275.5" cy="276.5" r="5.5"/><circle id="Oval" cx="283.5" cy="430.5" r="14.5"/><circle id="Oval" cx="10" cy="592" r="10"/></g></g></g></svg>