<?xml version="1.0" standalone="no"?>
<!DOCTYPE svg PUBLIC "-//W3C//DTD SVG 20010904//EN"
 "http://www.w3.org/TR/2001/REC-SVG-20010904/DTD/svg10.dtd">
<svg version="1.0" xmlns="http://www.w3.org/2000/svg"
 width="700.000000pt" height="700.000000pt" viewBox="0 0 700.000000 700.000000"
 preserveAspectRatio="xMidYMid meet">
<metadata>
Created by potrace 1.11, written by Peter Selinger 2001-2013
</metadata>
<g transform="translate(0.000000,700.000000) scale(0.100000,-0.100000)"
fill="#000000" stroke="none">
<path d="M3473 6716 c-17 -6 -660 -364 -1428 -796 -1087 -611 -1400 -791
-1411 -812 -21 -40 -20 -3180 0 -3217 20 -36 2829 -1613 2872 -1613 18 0 42 7
55 15 13 8 643 362 1399 787 756 424 1386 782 1400 796 l25 24 0 1600 0 1600
-25 24 c-26 25 -2801 1589 -2837 1598 -11 3 -33 0 -50 -6z m44 -318 c6 -7 13
-46 17 -87 5 -60 12 -80 35 -110 51 -65 80 -132 105 -243 6 -25 10 -27 63 -30
59 -3 82 -20 70 -52 -5 -12 -20 -16 -67 -16 l-60 0 0 -52 c0 -29 3 -69 6 -89
6 -36 8 -37 56 -41 39 -4 57 -12 81 -37 32 -31 32 -32 35 -153 l4 -122 -63
-134 -62 -133 16 -177 c10 -97 17 -188 17 -202 1 -61 42 -538 51 -579 5 -25
11 -75 13 -111 6 -80 34 -257 46 -287 9 -21 16 -23 84 -23 61 0 77 -3 85 -17
15 -27 -5 -53 -39 -53 l-30 0 0 -101 c0 -55 -5 -120 -11 -144 -10 -40 -8 -59
26 -182 20 -76 61 -213 91 -305 l55 -168 90 0 89 0 0 59 c0 51 3 61 20 66 12
4 28 1 36 -6 13 -11 14 -42 8 -223 -7 -223 -12 -247 -58 -284 l-25 -19 108
-219 c135 -274 231 -446 374 -668 56 -86 68 -112 60 -125 -9 -14 -44 -17 -284
-21 -151 -3 -281 -2 -289 2 -10 4 -22 38 -33 100 -36 192 -157 376 -315 482
-116 77 -281 126 -422 126 -144 0 -341 -61 -403 -125 -18 -18 -42 -35 -54 -39
-30 -10 -141 -131 -182 -199 -48 -81 -91 -214 -94 -288 l-2 -62 -290 2 c-279
2 -315 6 -315 33 0 6 38 69 84 142 95 150 234 389 264 456 11 25 57 125 102
222 l82 178 -31 35 c-17 20 -34 47 -37 62 -4 15 -4 114 -1 222 5 156 10 198
22 210 28 28 50 2 53 -63 l3 -56 84 0 84 0 50 155 c28 85 69 221 91 302 39
141 39 147 25 190 -10 28 -15 82 -15 148 l0 105 -30 0 c-36 0 -56 29 -37 53 9
12 33 17 92 19 l80 3 12 55 c33 151 64 426 108 980 l26 325 -66 139 -67 140 4
123 3 123 32 31 c26 26 42 33 86 37 l54 4 7 52 c3 28 6 68 6 88 l0 37 -52 3
c-47 3 -53 6 -56 27 -5 30 12 41 65 41 45 0 46 1 58 73 9 53 40 123 81 179 32
45 34 53 34 126 0 76 9 102 36 102 6 0 16 -6 21 -12z"/>
<path d="M3470 6113 c-30 -47 -60 -129 -60 -165 0 -16 10 -18 96 -18 l97 0 -7
42 c-7 46 -60 161 -82 179 -10 8 -20 0 -44 -38z"/>
<path d="M3406 5828 c-3 -13 -6 -51 -6 -85 l0 -63 105 0 105 0 0 48 c0 26 -3
64 -6 85 l-7 37 -92 0 c-88 0 -93 -1 -99 -22z"/>
<path d="M3230 5590 c-17 -17 -20 -33 -20 -100 l0 -80 290 0 290 0 0 80 c0
125 13 120 -290 120 -237 0 -251 -1 -270 -20z"/>
<path d="M3240 5325 c0 -13 84 -171 94 -177 6 -4 84 -8 173 -8 l163 0 45 90
c25 49 45 92 45 95 0 3 -117 5 -260 5 -143 0 -260 -2 -260 -5z"/>
<path d="M3510 4990 c41 -39 97 -89 124 -112 l49 -43 -6 79 c-4 44 -7 94 -7
113 l0 33 -117 0 -118 -1 75 -69z"/>
<path d="M3340 5018 c0 -13 -9 -124 -20 -248 -10 -124 -17 -226 -15 -228 5 -6
365 189 364 197 -1 5 -109 105 -275 254 -50 45 -54 47 -54 25z"/>
<path d="M3515 4565 c-93 -52 -171 -98 -172 -102 -1 -4 64 -55 145 -113 80
-58 171 -122 200 -144 l54 -39 -6 49 c-7 54 -36 397 -36 426 0 10 -3 18 -7 17
-5 0 -84 -43 -178 -94z"/>
<path d="M3286 4343 c-19 -191 -39 -354 -50 -426 -8 -45 -12 -84 -10 -86 4 -4
99 44 362 182 110 57 131 72 120 82 -7 7 -83 64 -168 125 -85 62 -176 128
-202 146 l-46 34 -6 -57z"/>
<path d="M3485 3874 c-143 -74 -264 -139 -269 -145 -6 -5 101 -9 287 -9 276 0
297 1 297 18 0 9 -9 71 -20 137 -11 66 -20 123 -20 128 0 4 -3 7 -7 7 -5 0
-125 -61 -268 -136z"/>
<path d="M3100 3536 c0 -91 3 -118 16 -130 13 -14 62 -16 384 -16 322 0 371 2
384 16 13 12 16 39 16 130 l0 114 -400 0 -400 0 0 -114z"/>
<path d="M3122 3304 c2 -6 48 -53 103 -103 l100 -92 23 97 c12 53 21 98 20
100 -2 1 -58 4 -126 6 -87 2 -122 0 -120 -8z"/>
<path d="M3752 3313 l-113 -4 6 -32 c4 -18 14 -62 22 -100 l15 -67 31 26 c18
15 65 57 105 94 68 65 87 93 60 88 -7 -1 -64 -4 -126 -5z"/>
<path d="M3445 3298 c-2 -7 -16 -66 -30 -131 -23 -104 -91 -349 -110 -399 -7
-17 7 -18 200 -18 188 0 207 2 201 16 -21 54 -88 297 -111 399 -15 66 -29 126
-31 133 -2 8 -23 12 -59 12 -36 0 -57 -5 -60 -12z"/>
<path d="M3080 3178 c-7 -24 -27 -92 -45 -153 -19 -60 -33 -111 -32 -112 4 -4
267 132 267 138 0 4 -40 44 -89 89 l-90 81 -11 -43z"/>
<path d="M3825 3136 c-49 -46 -88 -86 -85 -88 6 -5 261 -138 265 -138 2 0 -72
258 -86 297 -2 7 -43 -24 -94 -71z"/>
<path d="M3122 2886 c-84 -44 -157 -88 -162 -96 -23 -37 -14 -40 124 -40 l134
0 27 83 c15 45 30 94 35 110 5 15 6 26 2 26 -4 -1 -76 -38 -160 -83z"/>
<path d="M3741 2900 c12 -40 26 -88 33 -108 l13 -37 137 -3 138 -3 -7 23 c-4
13 -10 26 -14 30 -3 3 -77 43 -163 88 l-157 81 20 -71z"/>
<path d="M2690 2560 c0 -140 7 -150 110 -150 l70 0 0 51 c0 58 13 89 38 89 31
0 42 -22 42 -80 l0 -57 130 -1 129 -2 3 68 3 67 30 0 30 0 3 -67 3 -68 90 0
c52 0 97 5 109 12 15 9 24 9 42 0 15 -8 56 -12 118 -10 l95 3 5 65 c5 59 7 65
29 68 32 5 41 -12 41 -80 l0 -57 115 1 114 2 3 59 c3 67 23 91 56 71 12 -8 18
-27 20 -73 l3 -61 73 0 c107 0 110 4 114 144 l4 116 -811 0 -811 0 0 -110z"/>
<path d="M2718 2193 c-38 -82 -68 -152 -68 -156 0 -4 80 -6 178 -5 l177 3 0
150 0 150 -110 3 -110 3 -67 -148z"/>
<path d="M3080 2185 l0 -155 40 0 c22 0 73 11 114 25 41 14 108 30 150 36 l76
11 0 119 0 119 -190 0 -190 0 0 -155z"/>
<path d="M3540 2221 l0 -119 74 -11 c41 -6 109 -22 152 -36 44 -13 96 -25 117
-25 l37 0 0 155 0 155 -190 0 -190 0 0 -119z"/>
<path d="M3994 2327 c-2 -7 -3 -76 -2 -152 l3 -140 183 -3 c102 -1 182 1 180
6 -1 5 -34 75 -73 155 l-70 147 -108 0 c-79 0 -109 -3 -113 -13z"/>
<path d="M2542 1843 c-34 -63 -61 -118 -58 -120 12 -13 556 214 556 232 0 3
-98 5 -217 5 l-218 0 -63 -117z"/>
<path d="M3976 1951 c8 -9 497 -207 536 -218 11 -4 -2 30 -45 111 l-62 115
-219 1 c-134 0 -216 -4 -210 -9z"/>
<path d="M4175 1752 c48 -67 101 -184 122 -267 10 -38 18 -72 20 -74 3 -5 233
211 233 218 0 3 -78 37 -173 75 -94 39 -187 76 -205 83 l-32 13 35 -48z"/>
<path d="M2665 1708 c-99 -39 -182 -73 -185 -75 -5 -5 201 -202 212 -203 3 0
12 24 18 53 17 67 55 159 95 222 44 71 47 75 43 75 -2 0 -84 -32 -183 -72z"/>
<path d="M2357 1523 c-23 -37 -53 -85 -66 -105 l-23 -38 176 0 c97 0 176 3
176 6 0 6 -74 75 -177 168 l-42 38 -44 -69z"/>
<path d="M4508 1481 l-103 -100 163 -1 c89 0 162 4 162 9 0 7 -103 177 -114
189 -2 2 -51 -42 -108 -97z"/>
</g>
</svg>
