<svg xmlns="http://www.w3.org/2000/svg" xmlns:xlink="http://www.w3.org/1999/xlink" width="782" height="782" version="1.1" viewBox="0 0 782 782"><title>paris_p2p_favicon</title><desc>Created with Sketch.</desc><defs><path id="path-1" d="M321.534514,7.77871487 L9.99663729,187.725851 C3.81051082,191.299014 -2.57438742e-14,197.900492 0,205.044417 L0,564.956263 C8.7483378e-16,572.099823 3.81012518,578.701023 9.99575362,582.274319 L321.495754,762.220775 C327.685933,765.7967 335.314067,765.7967 341.504246,762.220775 L653.004246,582.274319 C659.189875,578.701023 663,572.099823 663,564.956263 L663,205.043056 C663,197.899861 659.190261,191.298941 653.00513,187.725511 L341.543007,7.77973589 C335.35301,4.20349427 327.724876,4.20310501 321.534514,7.77871487 Z"/></defs><g id="Page-1" fill="none" fill-rule="evenodd" stroke="none" stroke-width="1"><g id="paris_p2p-new-good-FAVICON" transform="translate(60.000000, 7.000000)"><g id="hexagon" stroke-linejoin="round"><use fill="#383B62" fill-rule="evenodd" xlink:href="#path-1"/><use stroke="#6ED3F0" stroke-width="18" xlink:href="#path-1"/><path stroke="#6ED3F0" stroke-linejoin="square" stroke-width="15" d="M325.285775,14.2731772 L13.7478983,194.220313 C9.88156926,196.45354 7.5,200.579464 7.5,205.044417 L7.5,564.956263 C7.5,569.420988 9.88132824,573.546738 13.747346,575.780048 L325.247346,755.726504 C329.116208,757.961457 333.883792,757.961457 337.752654,755.726504 L649.252654,575.780048 C653.118672,573.546738 655.5,569.420988 655.5,564.956263 L655.5,205.043056 C655.5,200.578559 653.118913,196.452984 649.253206,194.21959 L337.791083,14.2738153 C333.922335,12.0386643 329.154751,12.038421 325.285775,14.2731772 Z"/></g><g id="lines-tower" transform="translate(184.000000, 0.000000)"><path id="fill-55" fill="#4F5286" fill-rule="nonzero" d="M131,122 L131,120.697143 C131,106.930286 136.748571,93.728 147,84 C157.24,93.728 163,106.930286 163,120.697143 L163,122 L131,122 Z"/><polygon id="fill-49" stroke="#4D4F7D" stroke-linecap="round" stroke-linejoin="round" stroke-width="3" points="111 179 125.4 211 168.6 211 183 179"/><path id="Fill-9" fill="#4F5286" fill-rule="nonzero" d="M118.316071,478.8 C126.375893,454.736408 132.802679,430.211265 137.522679,405.371429 L157.466786,405.371429 C162.186786,430.211265 168.613572,454.736408 176.673393,478.8 L118.316071,478.8 Z M176.420535,293.875387 L162.239464,119 L132.75,119 L118.579464,293.875387 C108.749643,415.147919 67.9342857,531.888857 0,633 L59.36875,633 C63.13,587.77849 101.11125,552.228571 147.5,552.228571 C193.878215,552.228571 231.859465,587.77849 235.620715,633 L295,633 C227.055178,531.888857 186.239822,415.147919 176.420535,293.875387 L176.420535,293.875387 Z"/><path id="Stroke-31" stroke="#6ED3F0" stroke-linecap="round" stroke-linejoin="round" stroke-width="10" d="M118.316071,478.8 C126.375893,455.271154 132.802679,431.291014 137.522679,407.003175 L157.466786,407.003175 C162.186786,431.291014 168.613572,455.271154 176.673393,478.8 L118.316071,478.8 Z M176.420535,293.875387 L162.239464,119 L132.75,119 L118.579464,293.875387 C108.749643,415.147919 67.9342857,531.888857 0,633 L59.36875,633 C63.13,587.77849 101.11125,552.228571 147.5,552.228571 C193.878215,552.228571 231.859465,587.77849 235.620715,633 L295,633 C227.055178,531.888857 186.239822,415.147919 176.420535,293.875387 Z"/><path id="Stroke-35" stroke="#6ED3F0" stroke-linecap="round" stroke-linejoin="round" stroke-width="10" d="M251,558.891827 C243.681817,544.187861 236.854999,529.259976 230.540455,514.108173 L64.4595454,514.108173 C58.1450001,529.259976 51.3181818,544.187861 44,558.891827 L112.383182,558.891827 C123.140909,554.093579 135.006818,551.427885 147.5,551.427885 C159.993182,551.427885 171.869546,554.093579 182.616817,558.891827 L251,558.891827 Z"/><polygon id="fill-49" fill="#4F5286" fill-rule="nonzero" points="111 179 125.4 211 168.6 211 183 179"/><path id="Stroke-37" stroke="#6ED3F0" stroke-linecap="round" stroke-linejoin="round" stroke-width="10" d="M89,370.5 L205,370.5"/><path id="fill-41" fill="#4F5286" fill-rule="nonzero" d="M186.687499,409 L108.3125,409 C102.62,409 98,404.136 98,398.142856 L98,371 L197,371 L197,398.142856 C197,404.136 192.379999,409 186.687499,409 Z"/><path id="Stroke-41" stroke="#6ED3F0" stroke-linecap="round" stroke-linejoin="round" stroke-width="10" d="M186.687499,409 L108.3125,409 C102.62,409 98,404.136 98,398.142856 L98,371 L197,371 L197,398.142856 C197,404.136 192.379999,409 186.687499,409 Z"/><path id="fill-45" fill="#4F5286" fill-rule="nonzero" d="M183,182 L111,182 L111,161.428571 C111,155.12 115.608,150 121.285714,150 L172.714286,150 C178.392,150 183,155.12 183,161.428571 L183,182 Z"/><path id="Stroke-45" stroke="#6ED3F0" stroke-linecap="round" stroke-linejoin="round" stroke-width="10" d="M183,180 L111,180 L111,159.428571 C111,153.12 115.608,148 121.285714,148 L172.714286,148 C178.392,148 183,153.12 183,159.428571 L183,180 Z"/><polygon id="Stroke-49" stroke="#6ED3F0" stroke-linecap="round" stroke-linejoin="round" stroke-width="10" points="111 179 125.4 211 168.6 211 183 179"/><path id="Stroke-51" stroke="#6ED3F0" stroke-linecap="round" stroke-linejoin="round" stroke-width="10" d="M119,119.5 L178,119.5"/><path id="Stroke-55" stroke="#6ED3F0" stroke-linecap="round" stroke-linejoin="round" stroke-width="10" d="M134,119 L134,117.902857 C134,106.309714 138.850357,95.192 147.5,87 C156.14,95.192 161,106.309714 161,117.902857 L161,119 L134,119 Z"/><path id="Stroke-57" stroke="#6ED3F0" stroke-linecap="round" stroke-linejoin="round" stroke-width="10" d="M147.5,89 L147.5,51"/><path id="Stroke-59" stroke="#6ED3F0" stroke-linecap="round" stroke-linejoin="round" stroke-width="10" d="M52.5,482 L52.5,467"/><path id="Stroke-61" stroke="#6ED3F0" stroke-linecap="round" stroke-linejoin="round" stroke-width="10" d="M242.5,481 L242.5,466"/><path id="fill-65" fill="#4F5286" fill-rule="nonzero" d="M243,479 L52,479 L52,506.142856 C52,512.136 56.7015385,517 62.4945054,517 L232.505495,517 C238.298462,517 243,512.136 243,506.142856 L243,479 Z"/><path id="Stroke-65" stroke="#6ED3F0" stroke-linecap="round" stroke-linejoin="round" stroke-width="10" d="M243,479 L52,479 L52,506.142856 C52,512.136 56.7015385,517 62.4945054,517 L232.505495,517 C238.298462,517 243,512.136 243,506.142856 L243,479 Z"/><path id="Stroke-67" stroke="#6ED3F0" stroke-linecap="round" stroke-linejoin="round" stroke-width="10" d="M80.5,516 L80.5,501"/><path id="Stroke-69" stroke="#6ED3F0" stroke-linecap="round" stroke-linejoin="round" stroke-width="10" d="M116.5,516 L116.5,501"/><path id="Stroke-71" stroke="#6ED3F0" stroke-linecap="round" stroke-linejoin="round" stroke-width="10" d="M178.5,516 L178.5,501"/><path id="Stroke-73" stroke="#6ED3F0" stroke-linecap="round" stroke-linejoin="round" stroke-width="10" d="M211.5,516 L211.5,501"/><polyline id="Stroke-75" stroke="#6ED3F0" stroke-linecap="round" stroke-linejoin="round" stroke-width="10" points="126.337 209 173.432 252.463 120.665 281.445 180 324.917 111 361"/><path id="Stroke-77" stroke="#6ED3F0" stroke-linecap="round" stroke-linejoin="round" stroke-width="10" d="M146.5,519 L146.5,552"/><path id="Stroke-79" stroke="#6ED3F0" stroke-linecap="round" stroke-linejoin="round" stroke-width="10" d="M94.5,519 L94.5,559"/><path id="Stroke-81" stroke="#6ED3F0" stroke-linecap="round" stroke-linejoin="round" stroke-width="10" d="M199.5,519 L199.5,559"/><polyline id="Stroke-83" stroke="#6ED3F0" stroke-linecap="round" stroke-linejoin="round" stroke-width="10" points="196.587 416 166 443.641 212 467"/><polyline id="Stroke-85" stroke="#6ED3F0" stroke-linecap="round" stroke-linejoin="round" stroke-width="10" points="98.534 416 129 443.615 83 467"/><polyline id="Stroke-87" stroke="#6ED3F0" stroke-linecap="round" stroke-linejoin="round" stroke-width="10" points="59.113 633 22 598.647 94 570"/><polyline id="Stroke-89" stroke="#6ED3F0" stroke-linecap="round" stroke-linejoin="round" stroke-width="10" points="235.407 633 272 598.647 201 570"/></g></g></g></svg>