<?xml version="1.0" encoding="UTF-8"?>
<svg width="782px" height="782px" viewBox="0 0 782 782" version="1.1" xmlns="http://www.w3.org/2000/svg" xmlns:xlink="http://www.w3.org/1999/xlink">
    <!-- Generator: Sketch 55.2 (78181) - https://sketchapp.com -->
    <title>paris_p2p_v22</title>
    <desc>Created with Sketch.</desc>
    <g id="Page-1" stroke="none" stroke-width="1" fill="none" fill-rule="evenodd">
        <g id="paris_p2p-new-good" transform="translate(60.000000, 8.000000)">
            <path d="M321.534514,5.77871487 L9.99663729,185.725851 C3.81051082,189.299014 -2.57438742e-14,195.900492 0,203.044417 L0,562.956263 C8.7483378e-16,570.099823 3.81012518,576.701023 9.99575362,580.274319 L321.495754,760.220775 C327.685933,763.7967 335.314067,763.7967 341.504246,760.220775 L653.004246,580.274319 C659.189875,576.701023 663,570.099823 663,562.956263 L663,203.043056 C663,195.899861 659.190261,189.298941 653.00513,185.725511 L341.543007,5.77973589 C335.35301,2.20349427 327.724876,2.20310501 321.534514,5.77871487 Z" id="hexagon" stroke="#6ED3F0" stroke-width="18" fill="#383B62" stroke-linejoin="round"></path>
            <text id="Paris-P2P" font-family="CourierNewPS-BoldMT, Courier New" font-size="104" font-weight="bold" fill="#FFFFFF">
                <tspan x="66.0566406" y="561">Paris</tspan>
                <tspan x="378.107422" y="561" font-size="65"> </tspan>
                <tspan x="417.11377" y="561">P</tspan>
                <tspan x="479.523926" y="561" font-size="95">2</tspan>
                <tspan x="536.533203" y="561">P</tspan>
            </text>
            <g id="lines-tower" transform="translate(230.000000, 23.000000)">
                <path d="M91,85 L91,84.1085715 C91,74.6891428 94.9521429,65.656 102,59 C109.04,65.656 113,74.6891428 113,84.1085715 L113,85 L91,85 Z" id="fill-55" fill="#43466F" fill-rule="nonzero"></path>
                <polygon id="fill-49" stroke="#4D4F7D" stroke-width="3" stroke-linecap="round" stroke-linejoin="round" points="77 124 87 146 117 146 127 124"></polygon>
                <path d="M82.2196429,332.9 C87.8205357,316.186571 92.2866071,299.152571 95.5666071,281.9 L109.426071,281.9 C112.706071,299.152571 117.172143,316.186571 122.773036,332.9 L82.2196429,332.9 Z M122.597321,204.460143 L112.742679,83 L92.25,83 L82.4026786,204.460143 C75.5717857,288.690286 47.2085714,369.773 0,440 L41.25625,440 C43.87,408.591286 70.26375,383.9 102.5,383.9 C134.728929,383.9 161.122679,408.591286 163.736429,440 L205,440 C157.784107,369.773 129.420893,288.690286 122.597321,204.460143 L122.597321,204.460143 Z" id="Fill-9" fill="#43466F" fill-rule="nonzero"></path>
                <path d="M82.2196429,332.9 C87.8205357,316.55798 92.2866071,299.902514 95.5666071,283.033333 L109.426071,283.033333 C112.706071,299.902514 117.172143,316.55798 122.773036,332.9 L82.2196429,332.9 Z M122.597321,204.460143 L112.742679,83 L92.25,83 L82.4026786,204.460143 C75.5717857,288.690286 47.2085714,369.773 0,440 L41.25625,440 C43.87,408.591286 70.26375,383.9 102.5,383.9 C134.728929,383.9 161.122679,408.591286 163.736429,440 L205,440 C157.784107,369.773 129.420893,288.690286 122.597321,204.460143 Z" id="Stroke-31" stroke="#6568A8" stroke-width="4" stroke-linecap="round" stroke-linejoin="round"></path>
                <path d="M174,389 C168.873737,378.821667 164.091666,368.488333 159.668434,358 L43.3315656,358 C38.9083334,368.488333 34.1262626,378.821667 29,389 L76.9012626,389 C84.4368686,385.678572 92.7487374,383.833333 101.5,383.833333 C110.251263,383.833333 118.570455,385.678572 126.098737,389 L174,389 Z" id="Stroke-35" stroke="#6568A8" stroke-width="4" stroke-linecap="round" stroke-linejoin="round"></path>
                <polygon id="fill-49" fill="#43466F" fill-rule="nonzero" points="77 124 87 146 117 146 127 124"></polygon>
                <path d="M61,257.5 L142,257.5" id="Stroke-37" stroke="#6568A8" stroke-width="4" stroke-linecap="round" stroke-linejoin="round"></path>
                <path d="M129.8125,284 L75.1875,284 C71.22,284 68,280.672 68,276.571428 L68,258 L137,258 L137,276.571428 C137,280.672 133.78,284 129.8125,284 Z" id="fill-41" fill="#43466F" fill-rule="nonzero"></path>
                <path d="M129.8125,284 L75.1875,284 C71.22,284 68,280.672 68,276.571428 L68,258 L137,258 L137,276.571428 C137,280.672 133.78,284 129.8125,284 Z" id="Stroke-41" stroke="#6568A8" stroke-width="4" stroke-linecap="round" stroke-linejoin="round"></path>
                <path d="M127,126 L77,126 L77,111.857143 C77,107.52 80.2,104 84.1428571,104 L119.857143,104 C123.8,104 127,107.52 127,111.857143 L127,126 Z" id="fill-45" fill="#43466F" fill-rule="nonzero"></path>
                <path d="M127,125 L77,125 L77,110.857143 C77,106.52 80.2,103 84.1428571,103 L119.857143,103 C123.8,103 127,106.52 127,110.857143 L127,125 Z" id="Stroke-45" stroke="#6568A8" stroke-width="4" stroke-linecap="round" stroke-linejoin="round"></path>
                <polygon id="Stroke-49" stroke="#6568A8" stroke-width="4" stroke-linecap="round" stroke-linejoin="round" points="77 124 87 146 117 146 127 124"></polygon>
                <path d="M83,83.5 L124,83.5" id="Stroke-51" stroke="#6568A8" stroke-width="4" stroke-linecap="round" stroke-linejoin="round"></path>
                <path d="M93,83 L93,82.2457143 C93,74.2754285 96.4132143,66.632 102.5,61 C108.58,66.632 112,74.2754285 112,82.2457143 L112,83 L93,83 Z" id="Stroke-55" stroke="#6568A8" stroke-width="4" stroke-linecap="round" stroke-linejoin="round"></path>
                <path d="M102.5,62 L102.5,36" id="Stroke-57" stroke="#6568A8" stroke-width="4" stroke-linecap="round" stroke-linejoin="round"></path>
                <path d="M36.5,334 L36.5,324" id="Stroke-59" stroke="#6568A8" stroke-width="4" stroke-linecap="round" stroke-linejoin="round"></path>
                <path d="M168.5,334 L168.5,324" id="Stroke-61" stroke="#6568A8" stroke-width="4" stroke-linecap="round" stroke-linejoin="round"></path>
                <path d="M169,333 L36,333 L36,351.571428 C36,355.672 39.2738462,359 43.3076923,359 L161.692308,359 C165.726154,359 169,355.672 169,351.571428 L169,333 Z" id="fill-65" fill="#43466F" fill-rule="nonzero"></path>
                <path d="M169,333 L36,333 L36,351.571428 C36,355.672 39.2738462,359 43.3076923,359 L161.692308,359 C165.726154,359 169,355.672 169,351.571428 L169,333 Z" id="Stroke-65" stroke="#6568A8" stroke-width="4" stroke-linecap="round" stroke-linejoin="round"></path>
                <path d="M55.5,358 L55.5,348" id="Stroke-67" stroke="#6568A8" stroke-width="4" stroke-linecap="round" stroke-linejoin="round"></path>
                <path d="M81.5,358 L81.5,348" id="Stroke-69" stroke="#6568A8" stroke-width="4" stroke-linecap="round" stroke-linejoin="round"></path>
                <path d="M123.5,358 L123.5,348" id="Stroke-71" stroke="#6568A8" stroke-width="4" stroke-linecap="round" stroke-linejoin="round"></path>
                <path d="M146.5,358 L146.5,348" id="Stroke-73" stroke="#6568A8" stroke-width="4" stroke-linecap="round" stroke-linejoin="round"></path>
                <polyline id="Stroke-75" stroke="#6568A8" stroke-width="4" stroke-linecap="round" stroke-linejoin="round" points="87.6690844 145 120.430643 175.309431 83.7234815 195.520531 125 225.837181 77 251"></polyline>
                <path d="M101.5,359 L101.5,384" id="Stroke-77" stroke="#6568A8" stroke-width="4" stroke-linecap="round" stroke-linejoin="round"></path>
                <path d="M65.5,359 L65.5,389" id="Stroke-79" stroke="#6568A8" stroke-width="4" stroke-linecap="round" stroke-linejoin="round"></path>
                <path d="M138.5,359 L138.5,389" id="Stroke-81" stroke="#6568A8" stroke-width="4" stroke-linecap="round" stroke-linejoin="round"></path>
                <polyline id="Stroke-83" stroke="#6568A8" stroke-width="4" stroke-linecap="round" stroke-linejoin="round" points="136.277714 289 115 308.511562 147 325"></polyline>
                <polyline id="Stroke-85" stroke="#6568A8" stroke-width="4" stroke-linecap="round" stroke-linejoin="round" points="68.8065099 289 90 308.493037 58 325"></polyline>
                <polyline id="Stroke-87" stroke="#6568A8" stroke-width="4" stroke-linecap="round" stroke-linejoin="round" points="40.772898 440 15 416.007286 65 396"></polyline>
                <polyline id="Stroke-89" stroke="#6568A8" stroke-width="4" stroke-linecap="round" stroke-linejoin="round" points="163.74599 440 189 416.007286 140 396"></polyline>
            </g>
            <g id="circles-tower" transform="translate(221.000000, 51.000000)" fill="#6ED3F0" fill-rule="nonzero">
                <circle id="Oval" cx="124.5" cy="75.5" r="6.5"></circle>
                <circle id="Oval" cx="126" cy="118" r="5"></circle>
                <circle id="Oval" cx="135.5" cy="96.5" r="4.5"></circle>
                <circle id="Oval" cx="128.5" cy="146.5" r="5.5"></circle>
                <circle id="Oval" cx="133" cy="198" r="7"></circle>
                <circle id="Oval" cx="122" cy="56" r="4"></circle>
                <circle id="Oval" cx="214" cy="412" r="6"></circle>
                <circle id="Oval" cx="172.5" cy="329.5" r="7.5"></circle>
                <circle id="Oval" cx="155.5" cy="295.5" r="5.5"></circle>
                <circle id="Oval" cx="130" cy="305" r="5"></circle>
                <circle id="Oval" cx="125.5" cy="279.5" r="7.5"></circle>
                <circle id="Oval" cx="145" cy="257" r="6"></circle>
                <circle id="Oval" cx="176.5" cy="305.5" r="5.5"></circle>
                <circle id="Oval" cx="146" cy="363" r="11"></circle>
                <circle id="Oval" cx="173.5" cy="410.5" r="7.5"></circle>
                <circle id="Oval" cx="183.5" cy="360.5" r="5.5"></circle>
                <circle id="Oval" cx="199" cy="388" r="6"></circle>
                <circle id="Oval" cx="147.5" cy="331.5" r="5.5"></circle>
                <circle id="Oval" cx="145" cy="229" r="6"></circle>
                <circle id="Oval" cx="99.5" cy="74.5" r="4.5"></circle>
                <circle id="Oval" cx="97" cy="117" r="7"></circle>
                <circle id="Oval" cx="86" cy="97" r="5"></circle>
                <circle id="Oval" cx="93" cy="168" r="6"></circle>
                <circle id="Oval" cx="100.5" cy="55.5" r="5.5"></circle>
                <circle id="Oval" cx="11" cy="410" r="11"></circle>
                <circle id="Oval" cx="52" cy="331" r="6"></circle>
                <circle id="Oval" cx="67" cy="296" r="5"></circle>
                <circle id="Oval" cx="98.5" cy="279.5" r="5.5"></circle>
                <circle id="Oval" cx="78" cy="258" r="7"></circle>
                <circle id="Oval" cx="104.5" cy="255.5" r="4.5"></circle>
                <circle id="Oval" cx="118.5" cy="256.5" r="3.5"></circle>
                <circle id="Oval" cx="91" cy="305" r="5"></circle>
                <circle id="Oval" cx="45" cy="306" r="7"></circle>
                <circle id="Oval" cx="77.5" cy="364.5" r="6.5"></circle>
                <circle id="Oval" cx="49.5" cy="412.5" r="5.5"></circle>
                <circle id="Oval" cx="40" cy="360" r="8"></circle>
                <circle id="Oval" cx="25.5" cy="387.5" r="5.5"></circle>
                <circle id="Oval" cx="75" cy="332" r="5"></circle>
                <circle id="Oval" cx="82" cy="228" r="9"></circle>
                <circle id="Oval" cx="110.5" cy="355.5" r="5.5"></circle>
                <circle id="Oval" cx="111" cy="330" r="7"></circle>
                <circle id="Oval" cx="111.5" cy="32.5" r="5.5"></circle>
                <circle id="Oval" cx="111.5" cy="4.5" r="4.5"></circle>
            </g>
            <g id="circles-bg" opacity="0.846679688" transform="translate(28.000000, 71.000000)" fill="#6ED3F0" fill-rule="nonzero">
                <circle id="Oval" cx="111" cy="136" r="6"></circle>
                <circle id="Oval" cx="173.5" cy="124.5" r="5.5"></circle>
                <circle id="Oval" cx="37.5" cy="232.5" r="5.5"></circle>
                <circle id="Oval" cx="191.5" cy="41.5" r="4.5"></circle>
                <circle id="Oval" cx="151.5" cy="81.5" r="4.5"></circle>
                <circle id="Oval" cx="160.5" cy="350.5" r="4.5"></circle>
                <circle id="Oval" cx="74" cy="116" r="5"></circle>
                <circle id="Oval" cx="28.5" cy="151.5" r="9.5"></circle>
                <circle id="Oval" cx="343.5" cy="546.5" r="9.5"></circle>
                <circle id="Oval" cx="215.5" cy="527.5" r="7.5"></circle>
                <circle id="Oval" cx="71.5" cy="364.5" r="7.5"></circle>
                <circle id="Oval" cx="129.5" cy="403.5" r="5.5"></circle>
                <circle id="Oval" cx="85" cy="271" r="11"></circle>
                <circle id="Oval" cx="202.5" cy="588.5" r="6.5"></circle>
                <circle id="Oval" cx="262.5" cy="556.5" r="4.5"></circle>
                <circle id="Oval" cx="294.5" cy="526.5" r="5.5"></circle>
                <circle id="Oval" cx="79.5" cy="520.5" r="5.5"></circle>
                <circle id="Oval" cx="4.5" cy="444.5" r="4.5"></circle>
                <circle id="Oval" cx="129.5" cy="542.5" r="9.5"></circle>
                <circle id="Oval" cx="208" cy="244" r="6"></circle>
                <circle id="Oval" cx="14" cy="210" r="5"></circle>
                <circle id="Oval" cx="16.5" cy="314.5" r="5.5"></circle>
                <circle id="Oval" cx="104" cy="331" r="8"></circle>
                <circle id="Oval" cx="16.5" cy="390.5" r="9.5"></circle>
                <circle id="Oval" cx="160.5" cy="286.5" r="4.5"></circle>
                <circle id="Oval" cx="145" cy="226" r="6"></circle>
                <circle id="Oval" cx="102.5" cy="212.5" r="7.5"></circle>
                <circle id="Oval" cx="184.5" cy="176.5" r="8.5"></circle>
                <circle id="Oval" cx="229.5" cy="127.5" r="6.5"></circle>
                <circle id="Oval" cx="221.5" cy="75.5" r="7.5"></circle>
                <circle id="Oval" cx="252.5" cy="5.5" r="5.5"></circle>
                <circle id="Oval" cx="407" cy="37" r="6"></circle>
                <circle id="Oval" cx="364" cy="37" r="4"></circle>
                <circle id="Oval" cx="386.5" cy="178.5" r="6.5"></circle>
                <circle id="Oval" cx="435" cy="175" r="11"></circle>
                <circle id="Oval" cx="465.5" cy="81.5" r="4.5"></circle>
                <circle id="Oval" cx="461.5" cy="559.5" r="8.5"></circle>
                <circle id="Oval" cx="531.5" cy="520.5" r="4.5"></circle>
                <circle id="Oval" cx="603" cy="481" r="6"></circle>
                <circle id="Oval" cx="545" cy="113" r="5"></circle>
                <circle id="Oval" cx="384.5" cy="112.5" r="7.5"></circle>
                <circle id="Oval" cx="482.5" cy="235.5" r="5.5"></circle>
                <circle id="Oval" cx="566.5" cy="316.5" r="6.5"></circle>
                <circle id="Oval" cx="477.5" cy="390.5" r="5.5"></circle>
                <circle id="Oval" cx="439" cy="351" r="6"></circle>
                <circle id="Oval" cx="564" cy="239" r="9"></circle>
                <circle id="Oval" cx="531" cy="186" r="5"></circle>
                <circle id="Oval" cx="537.5" cy="366.5" r="7.5"></circle>
                <circle id="Oval" cx="591" cy="165" r="6"></circle>
                <circle id="Oval" cx="414" cy="538" r="5"></circle>
                <circle id="Oval" cx="416" cy="248" r="6"></circle>
                <circle id="Oval" cx="507" cy="262" r="4"></circle>
                <circle id="Oval" cx="436.5" cy="281.5" r="7.5"></circle>
                <circle id="Oval" cx="490" cy="325" r="13"></circle>
                <circle id="Oval" cx="379.5" cy="601.5" r="6.5"></circle>
                <circle id="Oval" cx="475" cy="141" r="9"></circle>
                <circle id="Oval" cx="595.5" cy="281.5" r="5.5"></circle>
                <circle id="Oval" cx="591" cy="399" r="10"></circle>
                <circle id="Oval" cx="290" cy="618" r="15"></circle>
            </g>
        </g>
    </g>
</svg>